<svg width="264" height="80" viewBox="0 0 264 80" fill="none" xmlns="http://www.w3.org/2000/svg">
<path d="M48.864 1.53605V47.9041H4.01735e-05V1.53605H48.864ZM6.24004 53.1841H25.248V64.1281H78.336V79.5841H6.24004V53.1841ZM36.48 22.9441V19.1041L12.864 27.5521V31.3921L36.48 22.9441ZM51.168 28.7041H60.096V21.6001H51.168V8.73605H60.096V5.53131e-05H79.008V51.8401H60.096V41.5681H51.168V28.7041ZM171.164 79.4881H99.5483V45.5041H118.364V67.9681H152.348V45.5041H171.164V79.4881ZM89.2763 0.864056H142.268V14.3041H119.804L118.076 18.4321H135.74L143.612 40.1281H125.372L117.692 19.3921L109.148 40.1281H89.7563L100.604 14.3041H89.2763V0.864056ZM147.164 56.9281V53.0881L123.644 56.7361V60.5761L147.164 56.9281ZM143.228 15.2641H152.252V5.53131e-05H171.164V41.2801H152.252V30.7201H143.228V15.2641ZM232.911 38.4961V42.2401H263.631V54.9121H182.991V42.2401H213.615V38.4961H187.311V0.192053H259.887V11.7121H206.703V14.6881H258.927V24.5761H206.703V27.4561H260.367V38.4961H232.911ZM186.063 58.2721H260.463V79.4881H241.071V71.1361H186.063V58.2721Z" fill="#6E56CF"/>
</svg>
