<svg width="562" height="81" viewBox="0 0 562 81" fill="none" xmlns="http://www.w3.org/2000/svg">
<path d="M48.864 2.20793V48.5759H4.01735e-05V2.20793H48.864ZM6.24004 53.8559H25.248V64.7999H78.336V80.2559H6.24004V53.8559ZM36.48 23.6159V19.7759L12.864 28.2239V32.0639L36.48 23.6159ZM51.168 29.3759H60.096V22.2719H51.168V9.40793H60.096V0.67193H79.008V52.5119H60.096V42.2399H51.168V29.3759ZM171.164 80.1599H99.5483V46.1759H118.364V68.6399H152.348V46.1759H171.164V80.1599ZM89.2763 1.53593H142.268V14.9759H119.804L118.076 19.1039H135.74L143.612 40.7999H125.372L117.692 20.0639L109.148 40.7999H89.7563L100.604 14.9759H89.2763V1.53593ZM147.164 57.5999V53.7599L123.644 57.4079V61.2479L147.164 57.5999ZM143.228 15.9359H152.252V0.67193H171.164V41.9519H152.252V31.3919H143.228V15.9359ZM313.058 10.4639H303.266V-7.24792e-05H376.322V10.4639H333.026L333.89 16.9919L348.194 12.9599H368.258L366.242 20.8319H376.994V32.4479H303.266V20.8319H346.658L348.77 14.3999L334.946 18.3359H314.21L313.058 10.4639ZM299.522 35.8079H380.162V45.8879H299.522V35.8079ZM303.17 67.7759L369.602 60.1919H303.17V49.1519H376.994V61.7279L318.05 68.6399H377.666V80.5439H303.17V67.7759ZM411.212 46.7519V61.6319H440.492V76.7039H391.724V31.6799H416.108V18.4319H391.724V3.26393H435.212V46.7519H411.212ZM439.244 29.2799H450.188V0.67193H469.196V77.2799H450.188V46.3679H439.244V29.2799ZM537.854 45.4079L521.246 7.39193L504.734 45.4079H480.734L500.606 2.39993H541.982L561.854 45.4079H537.854ZM481.022 62.1119H561.662V77.2799H481.022V62.1119Z" fill="#202020"/>
<path d="M232.911 39.1679V42.9119H263.631V55.5839H182.991V42.9119H213.615V39.1679H187.311V0.863928H259.887V12.3839H206.703V15.3599H258.927V25.2479H206.703V28.1279H260.367V39.1679H232.911ZM186.063 58.9439H260.463V80.1599H241.071V71.8079H186.063V58.9439Z" fill="#202020"/>
</svg>
