<svg width="499" height="92" viewBox="0 0 499 92" fill="none" xmlns="http://www.w3.org/2000/svg">
<path d="M48.864 1.53605V47.9041H4.01735e-05V1.53605H48.864ZM6.24004 53.1841H25.248V64.1281H78.336V79.5841H6.24004V53.1841ZM36.48 22.9441V19.1041L12.864 27.5521V31.3921L36.48 22.9441ZM51.168 28.7041H60.096V21.6001H51.168V8.73605H60.096V5.53131e-05H79.008V51.8401H60.096V41.5681H51.168V28.7041ZM171.164 79.4881H99.5483V45.5041H118.364V67.9681H152.348V45.5041H171.164V79.4881ZM89.2763 0.864056H142.268V14.3041H119.804L118.076 18.4321H135.74L143.612 40.1281H125.372L117.692 19.3921L109.148 40.1281H89.7563L100.604 14.3041H89.2763V0.864056ZM147.164 56.9281V53.0881L123.644 56.7361V60.5761L147.164 56.9281ZM143.228 15.2641H152.252V5.53131e-05H171.164V41.2801H152.252V30.7201H143.228V15.2641ZM232.911 38.4961V42.2401H263.631V54.9121H182.991V42.2401H213.615V38.4961H187.311V0.192053H259.887V11.7121H206.703V14.6881H258.927V24.5761H206.703V27.4561H260.367V38.4961H232.911ZM186.063 58.2721H260.463V79.4881H241.071V71.1361H186.063V58.2721ZM350.69 52.8961C350.69 59.4881 348.93 64.4801 345.41 67.8721C341.954 71.3281 337.122 73.0561 330.914 73.0561H319.778V91.2961H300.962V20.1601H330.914C337.122 20.1601 341.954 21.8881 345.41 25.3441C348.93 28.7361 350.69 33.7281 350.69 40.3201V52.8961ZM337.538 45.4081V40.8961L313.922 49.3441V53.8561L337.538 45.4081ZM361.431 73.0561V6.33605H380.631V73.0561H361.431ZM442.938 73.0561H413.178C406.138 73.0561 401.05 71.5201 397.914 68.4481C394.842 65.3761 393.306 60.5121 393.306 53.8561V20.1601H411.93V52.5121C411.93 56.0961 413.466 57.8881 416.538 57.8881H424.314V20.1601H442.938V73.0561ZM477.951 57.8881C480.511 57.8881 481.791 56.9281 481.791 55.0081C481.791 53.0241 480.511 52.0321 477.951 52.0321H472.479C465.631 52.0321 460.447 50.7841 456.927 48.2881C453.471 45.7921 451.743 41.8241 451.743 36.3841C451.743 31.7761 453.439 27.9361 456.831 24.8641C460.287 21.7281 465.727 20.1601 473.151 20.1601H495.423V35.1361H472.767C471.487 35.1361 470.559 35.3601 469.983 35.8081C469.471 36.2561 469.215 36.8961 469.215 37.7281C469.215 39.5201 470.367 40.4161 472.671 40.4161H478.815C485.599 40.4161 490.559 41.9201 493.695 44.9281C496.831 47.9361 498.399 51.5201 498.399 55.6801C498.399 60.6081 497.023 64.7361 494.271 68.0641C491.519 71.3921 486.687 73.0561 479.775 73.0561H454.143V57.8881H477.951Z" fill="#202020"/>
</svg>
